#!OML:ASF H:\LiuWeirdWalks\Patient Classification 1\Patient 1\Session 1\male.ASF
:FULLY-SPECIFIED
:DEGREES
588
root 1.83759 17.0404 23.7436 -0.547584 1.65597 -5.79808
lowerback 4.20083 2.92718 3.9158
upperback 0.0761321 4.17501 3.44437
thorax -2.25384 2.05828 1.103
lowerneck -25.3451 -0.641375 0.466788
upperneck 12.7103 -0.718453 -1.59209
head 8.02006 -0.489321 -0.714228
rclavicle 3.59055e-015 -1.11319e-014
rhumerus -21.5262 -14.0559 -73.11
rradius 41.6409
rwrist -16.1096
rhand -21.7713 -2.81361
rfingers 7.12502
rthumb 4.62964 -32.743
lclavicle 3.59055e-015 -1.11319e-014
lhumerus -39.2806 16.84 71.2605
lradius 35.1163
lwrist 1.91835
lhand -18.4732 2.79598
lfingers 7.12502
lthumb 7.81358 32.6316
rfemur 19.2925 1.80489 28.1959
rtibia 23.227
rfoot -11.984 -23.4098
rtoes -19.4624
lfemur -34.296 0.941607 -11.8597
ltibia 27.0831
lfoot 4.82073 10.1181
ltoes -21.4901
589
root 1.86736 17.064 23.9459 -0.743322 1.93168 -4.88344
lowerback 4.41042 2.91247 2.95558
upperback 0.0389298 4.1163 3.18562
thorax -2.45756 2.03633 1.35868
lowerneck -25.5863 -0.797302 0.297975
upperneck 12.6855 -0.878902 -1.54411
head 8.04905 -0.569221 -0.694508
rclavicle -1.83379e-014 -1.19271e-014
rhumerus -22.3131 -14.9264 -72.966
rradius 40.3332
rwrist -15.4484
rhand -21.4887 -2.7301
rfingers 7.12502
rthumb 4.90252 -32.6534
lclavicle -1.83379e-014 -1.19271e-014
lhumerus -39.0464 17.3985 71.6859
lradius 33.9043
lwrist 2.01799
lhand -18.6801 2.74864
lfingers 7.12502
lthumb 7.61394 32.5916
rfemur 18.8578 1.59635 27.1271
rtibia 25.676
rfoot -11.0109 -23.1336
rtoes -20.2637
lfemur -33.8475 1.27209 -13.2121
ltibia 27.6234
lfoot 5.90375 9.15699
ltoes -20.2561
590
root 1.89687 17.0919 24.1455 -0.995653 2.28398 -4.01516
lowerback 4.67089 2.79847 2.01227
upperback 0.0441118 3.92007 2.92126
thorax -2.64121 1.94733 1.60912
lowerneck -25.8487 -0.834718 0.334499
upperneck 12.6279 -0.94186 -1.54294
head 8.07012 -0.597395 -0.710027
rclavicle -4.25026e-014 -1.90833e-014
rhumerus -23.0363 -15.626 -72.9822
rradius 38.9288
rwrist -14.7576
rhand -21.2359 -2.56382
rfingers 7.12502
rthumb 5.1466 -32.4813
lclavicle -4.25026e-014 -1.90833e-014
lhumerus -38.8137 18.0754 71.9697
lradius 32.6142
lwrist 2.08615
lhand -18.8937 2.58756
lfingers 7.12502
lthumb 7.40777 32.4379
rfemur 18.2529 1.2102 26.055
rtibia 28.4438
rfoot -9.71075 -22.7656
rtoes -20.8781
lfemur -33.2345 1.64128 -14.5276
ltibia 28.1061
lfoot 6.26799 8.17203
ltoes -18.5502
591
root 1.92633 17.1245 24.3411 -1.28314 2.62119 -3.31749
lowerback 4.958 2.61098 1.22557
upperback 0.09287 3.62796 2.68044
thorax -2.77994 1.80978 1.80691
lowerneck -26.1628 -0.754034 0.552193
upperneck 12.5733 -0.910452 -1.53971
head 8.10032 -0.571491 -0.740915
rclavicle -2.86374e-014 -9.14409e-015
rhumerus -23.6643 -16.1681 -73.1671
rradius 37.4324
rwrist -14.0313
rhand -21.0032 -2.34589
rfingers 7.12502
rthumb 5.37123 -32.2578
lclavicle -2.86374e-014 -9.14409e-015
lhumerus -38.5713 18.8532 72.1238
lradius 31.3093
lwrist 2.1104
lhand -19.0861 2.4028
lfingers 7.12502
lthumb 7.22202 32.2596
rfemur 17.4696 0.742918 25.1234
rtibia 31.4291
rfoot -7.9567 -22.3204
rtoes -21.3119
lfemur -32.4987 1.97459 -15.5946
ltibia 28.5504
lfoot 6.08167 7.31628
ltoes -16.9025
592
root 1.95821 17.1628 24.5329 -1.55915 2.90885 -2.78933
lowerback 5.1871 2.46551 0.700322
upperback 0.179947 3.4005 2.47053
thorax -2.83035 1.70155 1.89261
lowerneck -26.4969 -0.729631 0.649423
upperneck 12.5326 -0.936546 -1.41542
head 8.13868 -0.565513 -0.719501
rclavicle 5.16219e-015 5.1684e-015
rhumerus -24.2628 -16.7612 -73.2812
rradius 35.8469
rwrist -13.2648
rhand -20.7957 -2.07127
rfingers 7.12502
rthumb 5.57157 -31.978
lclavicle 5.16219e-015 5.1684e-015
lhumerus -38.1905 19.5675 72.3709
lradius 29.9543
lwrist 1.97643
lhand -19.2371 2.1115
lfingers 7.12502
lthumb 7.07627 31.9732
rfemur 16.4831 0.229725 24.3075
rtibia 34.5335
rfoot -5.71891 -21.8034
rtoes -21.3443
lfemur -31.6994 2.23959 -16.4105
ltibia 28.9514
lfoot 5.53311 6.61424
ltoes -15.5259
593
root 1.99201 17.2073 24.7205 -1.80792 3.08519 -2.45857
lowerback 5.33724 2.39526 0.464495
upperback 0.293388 3.28791 2.3115
thorax -2.79778 1.6469 1.8655
lowerneck -26.8342 -0.786385 0.585891
upperneck 12.5216 -1.03531 -1.18294
head 8.18813 -0.589742 -0.64594
rclavicle 2.14315e-014 1.82882e-014
rhumerus -24.8356 -17.5008 -73.2632
rradius 34.1658
rwrist -12.3756
rhand -20.5645 -1.73929
rfingers 7.12502
rthumb 5.79481 -31.6401
lclavicle 2.14315e-014 1.82882e-014
lhumerus -37.6815 20.1851 72.7499
lradius 28.5942
lwrist 1.60567
lhand -19.2668 1.83984
lfingers 7.12502
lthumb 7.0476 31.7025
rfemur 15.2924 -0.248244 23.6628
rtibia 37.6739
rfoot -2.97327 -21.2709
rtoes -20.7361
lfemur -30.8629 2.45105 -16.9344
ltibia 29.2925
lfoot 4.84303 6.12623
ltoes -14.5345
594
root 2.02944 17.2571 24.9038 -2.02309 3.14268 -2.24614
lowerback 5.49464 2.525 0.556458
upperback 0.412583 3.4622 2.17954
thorax -2.75463 1.7311 1.66044
lowerneck -27.2868 -1.11944 0.0838222
upperneck 12.5667 -1.37477 -0.792809
head 8.27724 -0.731715 -0.484422
rclavicle -1.01691e-014 -2.0276e-014
rhumerus -25.4931 -18.6687 -72.8501
rradius 32.429
rwrist -11.3565
rhand -20.2898 -1.42208
rfingers 7.12502
rthumb 6.06004 -31.3154
lclavicle -1.01691e-014 -2.0276e-014
lhumerus -36.9149 20.4534 73.5072
lradius 27.2101
lwrist 0.946427
lhand -19.1554 1.58212
lfingers 7.12502
lthumb 7.15511 31.4412
rfemur 13.9313 -0.682031 23.0957
rtibia 40.782
rfoot 0.175133 -20.7315
rtoes -19.2496
lfemur -29.9858 2.62476 -17.2821
ltibia 29.534
lfoot 4.21483 5.86195
ltoes -13.6347
595
root 2.06922 17.3111 25.0832 -2.22219 3.03839 -2.18061
lowerback 5.69507 2.87488 0.99841
upperback 0.537286 3.95364 2.08597
thorax -2.71476 1.96954 1.27235
lowerneck -27.866 -1.75943 -0.878287
upperneck 12.6923 -1.97447 -0.270504
head 8.42272 -1.00349 -0.244977
rclavicle -6.9264e-014 -2.22639e-014
rhumerus -26.2501 -20.3864 -71.9901
rradius 30.6305
rwrist -10.0771
rhand -19.9212 -1.06119
rfingers 7.12502
rthumb 6.41584 -30.944
lclavicle -6.9264e-014 -2.22639e-014
lhumerus -35.8863 20.3452 74.6492
lradius 25.7986
lwrist -0.0314927
lhand -18.8848 1.39461
lfingers 7.12502
lthumb 7.41636 31.2446
rfemur 12.4412 -1.00365 22.6789
rtibia 43.8096
rfoot 3.60534 -20.1882
rtoes -16.8112
lfemur -29.0553 2.82209 -17.4303
ltibia 29.6428
lfoot 3.70263 5.74868
ltoes -12.8338
596
root 2.11259 17.369 25.2603 -2.39316 2.79902 -2.16529
lowerback 5.96222 3.44296 1.73766
upperback 0.635613 4.75801 1.97757
thorax -2.7069 2.36053 0.67433
lowerneck -28.4897 -2.72739 -2.27741
upperneck 12.8951 -2.85584 0.358105
head 8.62186 -1.41587 0.0542209
rclavicle 4.06639e-014 9.93923e-015
rhumerus -27.2181 -22.6607 -70.6573
rradius 28.8462
rwrist -8.5958
rhand -19.471 -0.853748
rfingers 7.12502
rthumb 6.85054 -30.7229
lclavicle 4.06639e-014 9.93923e-015
lhumerus -34.6711 19.764 76.1389
lradius 24.394
lwrist -1.27535
lhand -18.47 1.27449
lfingers 7.12502
lthumb 7.81673 31.11
rfemur 10.8562 -1.2424 22.2938
rtibia 46.7231
rfoot 7.15409 -19.6158
rtoes -13.3754
lfemur -28.0667 3.0116 -17.5067
ltibia 29.5935
lfoot 3.31738 5.77455
ltoes -12.0775
597
root 2.1587 17.4293 25.4356 -2.52085 2.44003 -2.1394
lowerback 6.27886 4.06527 2.58089
upperback 0.688261 5.6462 1.81765
thorax -2.73328 2.79135 -0.0449784
lowerneck -29.0792 -3.74578 -3.66742
upperneck 13.1782 -3.78261 0.940339
head 8.86254 -1.85216 0.323155
rclavicle 1.82633e-014 2.38542e-015
rhumerus -28.2893 -25.2123 -69.1461
rradius 26.9957
rwrist -6.77897
rhand -18.9147 -0.573751
rfingers 7.12502
rthumb 7.38753 -30.4248
lclavicle 1.82633e-014 2.38542e-015
lhumerus -33.4894 18.912 77.6458
lradius 23.0935
lwrist -2.59126
lhand -17.987 1.13788
lfingers 7.12502
lthumb 8.28292 30.9555
rfemur 9.18661 -1.40266 21.8892
rtibia 49.5111
rfoot 10.6451 -19.0901
rtoes -9.52436
lfemur -27.0289 3.15178 -17.5777
ltibia 29.3831
lfoot 3.06909 5.97628
ltoes -11.3674
598
root 2.2069 17.4907 25.6111 -2.60463 2.00377 -2.06517
lowerback 6.57703 4.70539 3.45555
upperback 0.70214 6.56348 1.60077
thorax -2.74676 3.23576 -0.840347
lowerneck -29.5834 -4.77482 -5.02113
upperneck 13.5591 -4.72447 1.50412
head 9.14349 -2.29419 0.571272
rclavicle -4.80313e-014 -1.19271e-014
rhumerus -29.4997 -27.9925 -67.4533
rradius 25.1359
rwrist -4.63224
rhand -18.2923 -0.281346
rfingers 7.12502
rthumb 7.98827 -30.1104
lclavicle -4.80313e-014 -1.19271e-014
lhumerus -32.3952 17.8307 79.1214
lradius 21.9185
lwrist -3.91872
lhand -17.4984 0.958783
lfingers 7.12502
lthumb 8.75445 30.7572
rfemur 7.46055 -1.51719 21.4289
rtibia 52.1727
rfoot 13.9153 -18.7396
rtoes -5.59689
lfemur -25.9395 3.20307 -17.6908
ltibia 29.0163
lfoot 2.93736 6.38984
ltoes -10.6391
599
root 2.25363 17.5517 25.7859 -2.65861 1.50984 -1.90799
lowerback 6.82227 5.23721 4.13785
upperback 0.684694 7.32486 1.35976
thorax -2.75737 3.60447 -1.53763
lowerneck -29.974 -5.58674 -6.05726
upperneck 13.996 -5.47722 1.95813
head 9.42699 -2.6436 0.757422
rclavicle -9.93302e-014 -1.59028e-015
rhumerus -30.724 -30.7334 -65.7758
rradius 23.2707
rwrist -2.09921
rhand -17.6152 -0.0147264
rfingers 7.12502
rthumb 8.64168 -29.8179
lclavicle -9.93302e-014 -1.59028e-015
lhumerus -31.5318 16.7198 80.4034
lradius 20.966
lwrist -5.09809
lhand -17.0659 0.743833
lfingers 7.12502
lthumb 9.17175 30.5244
rfemur 5.69846 -1.59201 20.9088
rtibia 54.7169
rfoot 16.868 -18.7185
rtoes -2.20174
lfemur -24.8037 3.17618 -17.8755
ltibia 28.5107
lfoot 2.89685 6.98019
ltoes -9.92422
600
root 2.29695 17.6112 25.9584 -2.674 1.02279 -1.64784
lowerback 6.92162 5.58142 4.48716
upperback 0.68557 7.80644 1.1412
thorax -2.70953 3.84018 -1.99299
lowerneck -30.3225 -6.0676 -6.65788
upperneck 14.4326 -5.9247 2.24809
head 9.68427 -2.84688 0.866666
rclavicle 1.42131e-014 1.19271e-015
rhumerus -31.7843 -33.3138 -64.2244
rradius 21.3948
rwrist 0.892731
rhand -16.9443 0.292466
rfingers 7.12502
rthumb 9.28907 -29.4829
lclavicle 1.42131e-014 1.19271e-015
lhumerus -30.8646 15.7688 81.4848
lradius 20.2715
lwrist -6.02744
lhand -16.727 0.553931
lfingers 7.12502
lthumb 9.49877 30.3198
rfemur 3.89238 -1.68249 20.3122
rtibia 57.1517
rfoot 19.3327 -19.1489
rtoes 0.47002
lfemur -23.6646 3.10786 -18.1707
ltibia 27.8925
lfoot 2.89644 7.62599
ltoes -9.2634
